<svg width="36" height="36" viewBox="0 0 36 36" fill="none">
<rect width="36" height="36" fill="transparent"/>
<path d="M9.53664 34.6703C9.65876 34.768 9.7931 34.8534 9.93966 34.9267C10.0862 34.9756 10.2328 35 10.3793 35C10.5259 35 10.6724 34.9756 10.819 34.9267C10.9655 34.8534 11.0999 34.768 11.222 34.6703L34.6703 11.222C34.8901 10.9777 35 10.6968 35 10.3793C35 10.0618 34.8901 9.78089 34.6703 9.53664L26.4634 1.32974C26.2191 1.10991 25.9382 1 25.6207 1C25.3032 1 25.0223 1.10991 24.778 1.32974L1.32974 24.778C1.10991 25.0223 1 25.3032 1 25.6207C1 25.9382 1.10991 26.2191 1.32974 26.4634L9.53664 34.6703ZM6.86207 22.5797L9.53664 25.2909C9.65876 25.3886 9.7931 25.4741 9.93966 25.5474C10.0862 25.5963 10.2328 25.6207 10.3793 25.6207C10.5259 25.6207 10.6724 25.5963 10.819 25.5474C10.9655 25.4741 11.0999 25.3886 11.222 25.2909C11.4418 25.0467 11.5517 24.7658 11.5517 24.4483C11.5517 24.1307 11.4418 23.8499 11.222 23.6056L8.51078 20.931L10.3793 19.0625L11.8815 20.6013C12.0036 20.699 12.1379 20.7845 12.2845 20.8578C12.431 20.9066 12.5776 20.931 12.7241 20.931C12.8707 20.931 13.0172 20.9066 13.1638 20.8578C13.3103 20.7845 13.4447 20.699 13.5668 20.6013C13.7866 20.357 13.8966 20.0761 13.8966 19.7586C13.8966 19.4411 13.7866 19.1602 13.5668 18.9159L12.028 17.4138L13.8966 15.5453L16.5711 18.2565C16.6932 18.3542 16.8276 18.4397 16.9741 18.5129C17.1207 18.5618 17.2672 18.5862 17.4138 18.5862C17.5603 18.5862 17.7069 18.5618 17.8534 18.5129C18 18.4397 18.1343 18.3542 18.2565 18.2565C18.4763 18.0122 18.5862 17.7313 18.5862 17.4138C18.5862 17.0963 18.4763 16.8154 18.2565 16.5711L15.5453 13.8966L17.4138 12.028L18.9159 13.5668C19.0381 13.6645 19.1724 13.75 19.319 13.8233C19.4655 13.8721 19.6121 13.8966 19.7586 13.8966C19.9052 13.8966 20.0517 13.8721 20.1983 13.8233C20.3448 13.75 20.4792 13.6645 20.6013 13.5668C20.8211 13.3226 20.931 13.0417 20.931 12.7241C20.931 12.4066 20.8211 12.1257 20.6013 11.8815L19.0625 10.3793L20.931 8.51078L23.6056 11.222C23.7277 11.3197 23.8621 11.4052 24.0086 11.4784C24.1552 11.5273 24.3017 11.5517 24.4483 11.5517C24.5948 11.5517 24.7414 11.5273 24.8879 11.4784C25.0345 11.4052 25.1688 11.3197 25.2909 11.222C25.5108 10.9777 25.6207 10.6968 25.6207 10.3793C25.6207 10.0618 25.5108 9.78089 25.2909 9.53664L22.5797 6.86207L25.6207 3.82112L32.1789 10.3793L10.3793 32.1789L3.82112 25.6207L6.86207 22.5797Z" fill="currentColor"/>
</svg>
