<svg version="1.1" id="Layer_1" xmlns="http://www.w3.org/2000/svg" xmlns:xlink="http://www.w3.org/1999/xlink" x="0px" y="0px"
	 viewBox="0 0 24 24" style="enable-background:new 0 0 24 24;" xml:space="preserve">
<path fill="currentColor" d="M5.5,8L0,17.2C0,20.5,2.4,23,5.5,23s5.5-2.5,5.5-5.8L5.5,8z M9.1,17.2H1.9l3.6-6.1L9.1,17.2z M5.5,21.4
	c-1.7,0-3-1.1-3.6-2.6h7.2C8.5,20.3,7.2,21.4,5.5,21.4z"/>
<path fill="currentColor" d="M19,3.2h-4.1C14.5,1.9,13.4,1,12,1S9.5,1.9,9.1,3.2H5v1.6h4.1C9.5,6.1,10.6,7,12,7s2.5-0.9,2.9-2.2H19V3.2z
	 M12,5.4c-0.8,0-1.4-0.6-1.4-1.4s0.6-1.4,1.4-1.4s1.4,0.6,1.4,1.4S12.8,5.4,12,5.4z"/>
<path fill="currentColor" d="M18.5,8L13,17.2c0,3.2,2.4,5.8,5.5,5.8s5.5-2.5,5.5-5.8L18.5,8z M22.1,17.2h-7.2l3.6-6.1L22.1,17.2z M18.5,21.4
	c-1.7,0-3-1.1-3.6-2.6h7.2C21.5,20.3,20.2,21.4,18.5,21.4z"/>
</svg>
