<?xml version="1.0" encoding="utf-8"?>
<!-- Generator: Adobe Illustrator 22.0.1, SVG Export Plug-In . SVG Version: 6.00 Build 0)  -->
<svg version="1.1" id="Layer_1" xmlns="http://www.w3.org/2000/svg" xmlns:xlink="http://www.w3.org/1999/xlink" x="0px" y="0px"
	 viewBox="0 0 24 24" style="enable-background:new 0 0 24 24;" xml:space="preserve">
<style type="text/css">
	.st0{fill:#333333;}
</style>
<g>
	<path class="st0" d="M23.9,11.7c-1-2.2-2.5-4.1-4.6-5.5C17.1,4.7,14.7,4,12,4C9.3,4,6.9,4.7,4.7,6.2c-2.1,1.4-3.6,3.2-4.6,5.5L0,12
		l0.1,0.3c1,2.2,2.5,4.1,4.6,5.5C6.9,19.3,9.3,20,12,20c2.7,0,5.1-0.7,7.3-2.2c2.1-1.4,3.6-3.2,4.6-5.5L24,12L23.9,11.7z M18.4,16.5
		c-1.9,1.3-4,1.9-6.4,1.9c-2.4,0-4.5-0.6-6.4-1.9c-1.7-1.2-3-2.6-3.9-4.5c0.8-1.8,2.1-3.3,3.9-4.5c1.9-1.3,4-1.9,6.4-1.9
		c2.4,0,4.5,0.6,6.4,1.9c1.7,1.2,3,2.6,3.9,4.5C21.4,13.8,20.1,15.3,18.4,16.5z"/>
	<path class="st0" d="M12,7c-2.8,0-5,2.2-5,5c0,2.8,2.2,5,5,5c2.8,0,5-2.2,5-5C17,9.2,14.8,7,12,7z M12,15.4c-1.9,0-3.4-1.5-3.4-3.4
		s1.5-3.4,3.4-3.4s3.4,1.5,3.4,3.4S13.9,15.4,12,15.4z"/>
</g>
</svg>
