<svg width="16" height="16" viewBox="0 0 16 16" fill="none">
<path d="M7.55247 0.271878C7.62175 0.0906259 7.75166 0 7.94218 0C8.15003 0 8.27994 0.0906259 8.3319 0.271878L9.9687 5.46474C9.98602 5.55537 10.0293 5.62787 10.0986 5.68224C10.1852 5.73662 10.2805 5.76381 10.3844 5.76381H15.5806C15.7884 5.76381 15.9183 5.86349 15.9703 6.06287C16.0396 6.26225 15.9876 6.42538 15.8144 6.55225L11.6315 9.76041C11.5449 9.83291 11.4843 9.91447 11.4496 10.0051C11.4323 10.0776 11.4323 10.1592 11.4496 10.2498L13.0864 15.4155C13.1384 15.6148 13.0778 15.778 12.9046 15.9048C12.7487 16.0317 12.6014 16.0317 12.4629 15.9048L8.25396 12.6695C8.16735 12.6151 8.08075 12.5879 7.99415 12.5879C7.92486 12.5879 7.84692 12.6151 7.76032 12.6695L3.5514 15.9048C3.39551 16.0317 3.23963 16.0317 3.08374 15.9048C2.92786 15.778 2.87589 15.6148 2.92786 15.4155L4.56466 10.2498C4.58198 10.1592 4.57332 10.0685 4.53868 9.97791C4.52136 9.88728 4.46939 9.81478 4.38279 9.76041L0.199854 6.55225C0.0266472 6.42538 -0.0339751 6.26225 0.0179868 6.06287C0.0872694 5.86349 0.225835 5.76381 0.433682 5.76381H5.62988C5.71648 5.76381 5.79442 5.73662 5.86371 5.68224C5.95031 5.62787 6.01093 5.55537 6.04557 5.46474L7.55247 0.271878Z" fill="currentColor"/>
</svg>
