<svg width="18" height="19" viewBox="0 0 18 19" fill="none">
<path d="M9 0.5C7.75781 0.5 6.58594 0.734375 5.48438 1.20312C4.39453 1.67188 3.43945 2.31641 2.61914 3.13672C1.81055 3.94531 1.17188 4.90039 0.703125 6.00195C0.234375 7.0918 0 8.25781 0 9.5C0 10.4492 0.140625 11.3633 0.421875 12.2422C0.703125 13.1094 1.0957 13.9062 1.59961 14.6328C2.10352 15.3594 2.70703 16.0039 3.41016 16.5664C4.11328 17.1172 4.88086 17.5566 5.71289 17.8848C5.67773 17.5215 5.6543 17.0996 5.64258 16.6191C5.63086 16.127 5.66602 15.6875 5.74805 15.3008C5.79492 15.125 5.87109 14.7969 5.97656 14.3164C6.09375 13.8242 6.21094 13.3203 6.32812 12.8047C6.45703 12.2891 6.56836 11.832 6.66211 11.4336C6.75586 11.0234 6.80273 10.8184 6.80273 10.8184C6.80273 10.8184 6.75586 10.6953 6.66211 10.4492C6.58008 10.2031 6.53906 9.88086 6.53906 9.48242C6.53906 8.86133 6.69727 8.3457 7.01367 7.93555C7.33008 7.51367 7.7168 7.30273 8.17383 7.30273C8.54883 7.30273 8.83008 7.43164 9.01758 7.68945C9.20508 7.93555 9.29883 8.22852 9.29883 8.56836C9.29883 8.95508 9.20508 9.41797 9.01758 9.95703C8.8418 10.4961 8.68945 11.0352 8.56055 11.5742C8.45508 12.0195 8.53711 12.4004 8.80664 12.7168C9.08789 13.0332 9.45117 13.1914 9.89648 13.1914C10.2949 13.1914 10.6641 13.0918 11.0039 12.8926C11.3555 12.6934 11.6543 12.4121 11.9004 12.0488C12.1582 11.6855 12.3574 11.252 12.498 10.748C12.6504 10.2441 12.7266 9.6875 12.7266 9.07812C12.7266 8.53906 12.6328 8.04688 12.4453 7.60156C12.2578 7.14453 12 6.75781 11.6719 6.44141C11.3438 6.11328 10.9453 5.86133 10.4766 5.68555C10.0195 5.49805 9.51562 5.4043 8.96484 5.4043C8.32031 5.4043 7.74609 5.51562 7.24219 5.73828C6.73828 5.96094 6.31055 6.25391 5.95898 6.61719C5.61914 6.98047 5.35547 7.39648 5.16797 7.86523C4.99219 8.33398 4.9043 8.82031 4.9043 9.32422C4.9043 9.71094 4.96875 10.0918 5.09766 10.4668C5.22656 10.8418 5.38477 11.1406 5.57227 11.3633C5.60742 11.4102 5.625 11.457 5.625 11.5039C5.63672 11.5391 5.63672 11.5801 5.625 11.627C5.58984 11.7676 5.54297 11.9609 5.48438 12.207C5.42578 12.4414 5.39062 12.5879 5.37891 12.6465C5.35547 12.7285 5.32031 12.7812 5.27344 12.8047C5.22656 12.8164 5.16211 12.8047 5.08008 12.7695C4.51758 12.5117 4.07227 12.0312 3.74414 11.3281C3.41602 10.625 3.25195 9.94531 3.25195 9.28906C3.25195 8.57422 3.38086 7.88867 3.63867 7.23242C3.89648 6.57617 4.27148 5.99609 4.76367 5.49219C5.26758 4.98828 5.88867 4.58984 6.62695 4.29688C7.36523 3.99219 8.2207 3.83984 9.19336 3.83984C9.97852 3.83984 10.7051 3.97461 11.373 4.24414C12.0527 4.50195 12.6387 4.86523 13.1309 5.33398C13.6348 5.79102 14.0273 6.33594 14.3086 6.96875C14.6016 7.60156 14.748 8.29297 14.748 9.04297C14.748 9.81641 14.6309 10.543 14.3965 11.2227C14.1621 11.9023 13.8398 12.4941 13.4297 12.998C13.0195 13.502 12.5273 13.9004 11.9531 14.1934C11.3789 14.4863 10.752 14.6328 10.0723 14.6328C9.61523 14.6328 9.19336 14.5332 8.80664 14.334C8.41992 14.123 8.15625 13.877 8.01562 13.5957C8.01562 13.5957 7.93359 13.9004 7.76953 14.5098C7.61719 15.1191 7.51172 15.5293 7.45312 15.7402C7.34766 16.127 7.17773 16.543 6.94336 16.9883C6.7207 17.4336 6.51562 17.8027 6.32812 18.0957C6.75 18.2246 7.18359 18.3242 7.62891 18.3945C8.07422 18.4648 8.53125 18.5 9 18.5C10.2422 18.5 11.4082 18.2656 12.498 17.7969C13.5996 17.3281 14.5547 16.6895 15.3633 15.8809C16.1836 15.0605 16.8281 14.1055 17.2969 13.0156C17.7656 11.9141 18 10.7422 18 9.5C18 8.25781 17.7656 7.0918 17.2969 6.00195C16.8281 4.90039 16.1836 3.94531 15.3633 3.13672C14.5547 2.31641 13.5996 1.67188 12.498 1.20312C11.4082 0.734375 10.2422 0.5 9 0.5Z" fill="currentColor"/>
</svg>
