<svg width="36" height="36" viewBox="0 0 36 36" fill="none">
<rect width="36" height="36" fill="transparent"/>
<path d="M27.3516 11.7548C27.1172 11.5183 26.8477 11.4 26.543 11.4C26.2383 11.4 25.9805 11.5183 25.7695 11.7548C25.5352 11.9914 25.418 12.2634 25.418 12.571C25.418 12.8548 25.5352 13.1151 25.7695 13.3516C27.0586 14.6527 27.7031 16.214 27.7031 18.0355C27.7031 19.857 27.0586 21.3946 25.7695 22.6484C25.5352 22.8849 25.418 23.157 25.418 23.4645C25.418 23.7484 25.5352 24.0086 25.7695 24.2452C25.8867 24.3634 26.0156 24.4581 26.1562 24.529C26.2969 24.5763 26.4258 24.6 26.543 24.6C26.6602 24.6 26.7891 24.5763 26.9297 24.529C27.0938 24.4581 27.2344 24.3634 27.3516 24.2452C28.1953 23.3935 28.8281 22.4237 29.25 21.3355C29.6719 20.2473 29.8828 19.1355 29.8828 18C29.8828 16.8645 29.6719 15.7527 29.25 14.6645C28.8281 13.5763 28.1953 12.6065 27.3516 11.7548ZM30.0234 7.31935C29.8125 7.55591 29.707 7.82796 29.707 8.13548C29.707 8.41935 29.8125 8.67957 30.0234 8.91613C31.2188 10.0989 32.1328 11.4828 32.7656 13.0677C33.4219 14.6527 33.75 16.2968 33.75 18C33.75 19.7032 33.4219 21.3355 32.7656 22.8968C32.1328 24.4344 31.2188 25.8301 30.0234 27.0839C29.8125 27.3204 29.707 27.5925 29.707 27.9C29.707 28.1839 29.8125 28.4441 30.0234 28.6806C30.1406 28.7989 30.2695 28.8817 30.4102 28.929C30.5742 28.9763 30.7148 29 30.832 29C30.9492 29 31.0781 28.9763 31.2188 28.929C31.3594 28.8817 31.4883 28.7989 31.6055 28.6806C32.3086 27.971 32.9297 27.214 33.4688 26.4097C34.0312 25.5817 34.4883 24.7183 34.8398 23.8194C35.2148 22.8968 35.4961 21.9505 35.6836 20.9806C35.8945 20.0108 36 19.0172 36 18C36 16.9828 35.8945 15.9892 35.6836 15.0194C35.4961 14.0258 35.2148 13.0796 34.8398 12.1806C34.4883 11.2817 34.0312 10.4301 33.4688 9.62581C32.9297 8.79785 32.3086 8.02903 31.6055 7.31935C31.3945 7.10645 31.1367 7 30.832 7C30.5273 7 30.2578 7.10645 30.0234 7.31935ZM10.3359 11.7548C10.125 11.5183 9.86719 11.4 9.5625 11.4C9.25781 11.4 9 11.5183 8.78906 11.7548C7.94531 12.6065 7.3125 13.5763 6.89062 14.6645C6.46875 15.7527 6.25781 16.8763 6.25781 18.0355C6.25781 19.171 6.46875 20.2946 6.89062 21.4065C7.3125 22.4946 7.94531 23.4763 8.78906 24.3516C8.88281 24.4699 9 24.5645 9.14062 24.6355C9.30469 24.6828 9.44531 24.7065 9.5625 24.7065C9.67969 24.7065 9.80859 24.6828 9.94922 24.6355C10.1133 24.5645 10.2422 24.4699 10.3359 24.3516C10.5703 24.1387 10.6875 23.8785 10.6875 23.571C10.6875 23.2634 10.5703 22.9914 10.3359 22.7548C9.04688 21.4538 8.40234 19.8925 8.40234 18.071C8.40234 16.2495 9.04688 14.7118 10.3359 13.4581C10.5234 13.1742 10.6172 12.8785 10.6172 12.571C10.6172 12.2634 10.5234 11.9914 10.3359 11.7548ZM2.25 18C2.25 16.2968 2.56641 14.6763 3.19922 13.1387C3.85547 11.5774 4.78125 10.1699 5.97656 8.91613C6.1875 8.67957 6.29297 8.41935 6.29297 8.13548C6.29297 7.82796 6.1875 7.55591 5.97656 7.31935C5.74219 7.10645 5.47266 7 5.16797 7C4.86328 7 4.60547 7.10645 4.39453 7.31935C3.69141 8.02903 3.05859 8.79785 2.49609 9.62581C1.95703 10.4538 1.5 11.329 1.125 12.2516C0.75 13.1505 0.46875 14.0849 0.28125 15.0548C0.09375 16.0247 0 17.0065 0 18C0 18.9935 0.09375 19.9753 0.28125 20.9452C0.46875 21.9151 0.75 22.8613 1.125 23.7839C1.5 24.6828 1.95703 25.5462 2.49609 26.3742C3.05859 27.2022 3.69141 27.971 4.39453 28.6806C4.51172 28.7989 4.64062 28.8817 4.78125 28.929C4.92188 28.9763 5.05078 29 5.16797 29C5.28516 29 5.41406 28.9763 5.55469 28.929C5.71875 28.8817 5.85938 28.7989 5.97656 28.6806C6.1875 28.4441 6.29297 28.1839 6.29297 27.9C6.29297 27.5925 6.1875 27.3204 5.97656 27.0839C4.78125 25.8301 3.85547 24.4344 3.19922 22.8968C2.56641 21.3355 2.25 19.7032 2.25 18ZM18 13.4581C16.7578 13.4581 15.6914 13.9075 14.8008 14.8065C13.9336 15.6817 13.5 16.7462 13.5 18C13.5 19.2538 13.9336 20.3301 14.8008 21.229C15.6914 22.1043 16.7578 22.5419 18 22.5419C19.2422 22.5419 20.2969 22.1043 21.1641 21.229C22.0547 20.3301 22.5 19.2538 22.5 18C22.5 16.7462 22.0547 15.6817 21.1641 14.8065C20.2969 13.9075 19.2422 13.4581 18 13.4581ZM18 20.271C17.3906 20.271 16.8633 20.0462 16.418 19.5968C15.9727 19.1473 15.75 18.6151 15.75 18C15.75 17.3849 15.9727 16.8527 16.418 16.4032C16.8633 15.9538 17.3906 15.729 18 15.729C18.6094 15.729 19.1367 15.9538 19.582 16.4032C20.0273 16.8527 20.25 17.3849 20.25 18C20.25 18.6151 20.0273 19.1473 19.582 19.5968C19.1367 20.0462 18.6094 20.271 18 20.271Z" fill="currentColor"/>
</svg>
