<svg width="24" height="24" viewBox="0 0 24 24" fill="none" xmlns="http://www.w3.org/2000/svg">
<g clip-path="url(#clip0)">
<rect width="24" height="24" fill="white"/>
<path d="M4.82644 23.2C5.18517 17.8073 9.14887 13.8 14 13.8C18.8511 13.8 22.8148 17.8073 23.1736 23.2L4.82644 23.2Z" stroke="currentColor" stroke-width="1.6"/>
<path d="M0.8 8C0.8 5.12812 3.12812 2.8 6 2.8H12.2V9C12.2 15.4691 7.16497 20.7622 0.8 21.1742V8Z" fill="white" stroke="currentColor" stroke-width="1.6"/>
<circle cx="14" cy="10" r="9.2" fill="white" stroke="currentColor" stroke-width="1.6"/>
<mask id="path-4-inside-1" fill="white">
<path d="M23.6281 12.7019C24.0425 11.225 24.1117 9.67266 23.8302 8.16483C23.5487 6.657 22.9241 5.23414 22.0047 4.00632C21.0854 2.77849 19.8959 1.77861 18.5283 1.08403C17.1607 0.389442 15.6516 0.0187734 14.1179 0.000694615C12.5841 -0.0173842 11.0667 0.317611 9.68313 0.979766C8.29954 1.64192 7.08681 2.61349 6.13877 3.8193C5.19073 5.02512 4.53278 6.43286 4.21582 7.93363C3.89887 9.43441 3.9314 10.988 4.31091 12.4742L14 10L23.6281 12.7019Z"/>
</mask>
<path d="M23.6281 12.7019C24.0425 11.225 24.1117 9.67266 23.8302 8.16483C23.5487 6.657 22.9241 5.23414 22.0047 4.00632C21.0854 2.77849 19.8959 1.77861 18.5283 1.08403C17.1607 0.389442 15.6516 0.0187734 14.1179 0.000694615C12.5841 -0.0173842 11.0667 0.317611 9.68313 0.979766C8.29954 1.64192 7.08681 2.61349 6.13877 3.8193C5.19073 5.02512 4.53278 6.43286 4.21582 7.93363C3.89887 9.43441 3.9314 10.988 4.31091 12.4742L14 10L23.6281 12.7019Z" fill="white" stroke="currentColor" stroke-width="3.2" mask="url(#path-4-inside-1)"/>
</g>
<defs>
<clipPath id="clip0">
<rect width="24" height="24" fill="white"/>
</clipPath>
</defs>
</svg>
