<svg width="24" height="24" viewBox="0 0 24 24" fill="none">
<path d="M17.6071 20.8382C12.78 23.5599 6.54013 22.0678 3.67471 17.5702L2.32529 18.4298C5.66889 23.6781 12.8604 25.3514 18.3929 22.2319L17.6071 20.8382Z" fill="currentColor"/>
<path d="M2.3746 17L2.569 16.224L1.79298 16.0296L1.59858 16.8056L2.3746 17ZM1.77602 22.6817L3.15062 17.1944L1.59858 16.8056L0.223978 22.2929L1.77602 22.6817ZM2.1802 17.776L7.6675 19.1506L8.0563 17.5986L2.569 16.224L2.1802 17.776Z" fill="currentColor"/>
<path d="M6.39293 3.16183C11.22 0.440086 17.4599 1.93216 20.3253 6.42985L21.6747 5.57015C18.3311 0.32189 11.1396 -1.35141 5.60707 1.76812L6.39293 3.16183Z" fill="currentColor"/>
<path d="M21.6254 7L21.431 7.77602L22.207 7.97042L22.4014 7.1944L21.6254 7ZM22.224 1.3183L20.8494 6.8056L22.4014 7.1944L23.776 1.7071L22.224 1.3183ZM21.8198 6.22398L16.3325 4.84938L15.9437 6.40142L21.431 7.77602L21.8198 6.22398Z" fill="currentColor"/>
</svg>
