<svg width="36" height="36" viewBox="0 0 36 36" fill="none">
<rect width="36" height="36" fill="transparent"/>
<path d="M32 20.25V1.125C32 0.820312 31.8828 0.5625 31.6484 0.351562C31.4375 0.117188 31.1797 0 30.875 0H27.5C27.3125 0 27.1367 0.046875 26.9727 0.140625C26.832 0.210938 26.7031 0.316406 26.5859 0.457031L24.125 3.76172L21.6641 0.457031C21.5469 0.316406 21.4062 0.210938 21.2422 0.140625C21.1016 0.046875 20.9375 0 20.75 0H6.125C5.82031 0 5.55078 0.117188 5.31641 0.351562C5.10547 0.5625 5 0.820312 5 1.125V20.25C5 21.4922 5.43359 22.5586 6.30078 23.4492C7.19141 24.3164 8.25781 24.75 9.5 24.75H14V31.5C14 32.7422 14.4336 33.7969 15.3008 34.6641C16.1914 35.5547 17.2578 36 18.5 36C19.7422 36 20.7969 35.5547 21.6641 34.6641C22.5547 33.7969 23 32.7422 23 31.5V24.75H27.5C28.7422 24.75 29.7969 24.3164 30.6641 23.4492C31.5547 22.5586 32 21.4922 32 20.25ZM20.1875 2.25L23.2109 6.29297C23.4219 6.57422 23.7266 6.71484 24.125 6.71484C24.5234 6.71484 24.8281 6.57422 25.0391 6.29297L28.0625 2.25H29.75V16.875H7.25V2.25H20.1875ZM21.875 22.5C21.5703 22.5 21.3008 22.6172 21.0664 22.8516C20.8555 23.0625 20.75 23.3203 20.75 23.625V31.5C20.75 32.1094 20.5273 32.6367 20.082 33.082C19.6367 33.5273 19.1094 33.75 18.5 33.75C17.8906 33.75 17.3633 33.5273 16.918 33.082C16.4727 32.6367 16.25 32.1094 16.25 31.5V23.625C16.25 23.3203 16.1328 23.0625 15.8984 22.8516C15.6875 22.6172 15.4297 22.5 15.125 22.5H9.5C8.89062 22.5 8.36328 22.2773 7.91797 21.832C7.47266 21.3867 7.25 20.8594 7.25 20.25V19.125H29.75V20.25C29.75 20.8594 29.5273 21.3867 29.082 21.832C28.6367 22.2773 28.1094 22.5 27.5 22.5H21.875ZM18.5 28.125C18.1953 28.125 17.9258 28.2422 17.6914 28.4766C17.4805 28.6875 17.375 28.9453 17.375 29.25V30.375C17.375 30.6797 17.4805 30.9492 17.6914 31.1836C17.9258 31.3945 18.1953 31.5 18.5 31.5C18.8047 31.5 19.0625 31.3945 19.2734 31.1836C19.5078 30.9492 19.625 30.6797 19.625 30.375V29.25C19.625 28.9453 19.5078 28.6875 19.2734 28.4766C19.0625 28.2422 18.8047 28.125 18.5 28.125Z" fill="currentColor"/>
</svg>
