<svg width="55" height="18" viewBox="0 0 55 18" fill="none">
<path d="M29.5096 9.55645C32.0023 9.55645 34.0231 7.57107 34.0231 5.12198C34.0231 2.67288 32.0023 0.6875 29.5096 0.6875C27.0169 0.6875 24.9961 2.67288 24.9961 5.12198C24.9961 7.57107 27.0169 9.55645 29.5096 9.55645Z" fill="#F5821E"/>
<path d="M3.38347 0.943359H0.953125V9.30064H3.38347C4.68543 9.30064 5.64021 8.95953 6.42139 8.36258C7.37617 7.59508 7.98376 6.40118 7.98376 5.122C7.98376 2.64893 6.161 0.943359 3.38347 0.943359ZM5.37982 7.25396C4.85903 7.68035 4.16465 7.93619 3.12307 7.93619H2.60229V2.39309H3.03627C4.07785 2.39309 4.77223 2.56365 5.29302 3.07532C5.90061 3.58699 6.2478 4.3545 6.2478 5.122C6.3346 5.88951 5.9874 6.74229 5.37982 7.25396Z" fill="#141414"/>
<path d="M10.4148 0.943359H8.76562V9.30064H10.4148V0.943359Z" fill="#141414"/>
<path d="M14.5813 4.18328C13.5397 3.84217 13.2793 3.58633 13.2793 3.15994C13.2793 2.64827 13.8001 2.22188 14.4945 2.22188C15.0153 2.22188 15.4493 2.39243 15.8833 2.9041L16.7512 1.79548C16.0569 1.19853 15.1889 0.857423 14.2341 0.857423C12.7585 0.857423 11.5434 1.88076 11.5434 3.24522C11.5434 4.43912 12.0642 4.95079 13.6265 5.54774C14.3209 5.80357 14.5813 5.88885 14.7549 6.0594C15.1021 6.22996 15.2757 6.57107 15.2757 6.91219C15.2757 7.59442 14.7549 8.10609 13.9737 8.10609C13.1925 8.10609 12.4981 7.67969 12.1509 6.99747L11.1094 8.02081C11.8906 9.12943 12.8453 9.6411 14.0605 9.6411C15.7965 9.6411 17.0116 8.53248 17.0116 6.91219C17.0116 5.46246 16.4908 4.86551 14.5813 4.18328Z" fill="#141414"/>
<path d="M17.5313 5.12132C17.5313 7.59439 19.5276 9.47052 22.0447 9.47052C22.7391 9.47052 23.3467 9.29996 24.1279 8.95885V6.99744C23.4335 7.67967 22.8259 7.9355 22.1315 7.9355C20.4824 7.9355 19.2672 6.74161 19.2672 5.03604C19.2672 3.41575 20.4824 2.13657 22.0447 2.13657C22.8259 2.13657 23.4335 2.39241 24.1279 3.07464V1.11323C23.4335 0.772119 22.8259 0.601562 22.0447 0.601562C19.6144 0.772119 17.5313 2.73352 17.5313 5.12132Z" fill="#141414"/>
<path d="M37.7553 6.57173L35.4985 0.943359H33.6758L37.2345 9.55648H38.1893L41.9216 0.943359H40.0988L37.7553 6.57173Z" fill="#141414"/>
<path d="M42.6172 9.30064H47.3911V7.93619H44.3531V5.63367H47.3043V4.18394H44.3531V2.39309H47.3911V0.943359H42.6172V9.30064Z" fill="#141414"/>
<path d="M52.0743 5.80423C53.3763 5.54839 54.0707 4.69561 54.0707 3.41643C54.0707 1.88142 52.9423 0.943359 51.0328 0.943359H48.5156V9.30064H50.1648V5.97479H50.4252L52.7687 9.30064H54.7651L52.0743 5.80423ZM50.6856 4.78089H50.1648V2.22253H50.6856C51.7271 2.22253 52.3347 2.64893 52.3347 3.50171C52.3347 4.3545 51.7271 4.78089 50.6856 4.78089Z" fill="#4D4D4D"/>
<path d="M52.0743 5.80423C53.3763 5.54839 54.0707 4.69561 54.0707 3.41643C54.0707 1.88142 52.9423 0.943359 51.0328 0.943359H48.5156V9.30064H50.1648V5.97479H50.4252L52.7687 9.30064H54.7651L52.0743 5.80423ZM50.6856 4.78089H50.1648V2.22253H50.6856C51.7271 2.22253 52.3347 2.64893 52.3347 3.50171C52.3347 4.3545 51.7271 4.78089 50.6856 4.78089Z" fill="#141414"/>
<path d="M13.1914 17.0595V12.3691L16.4897 15.695V12.625H17.1841V17.3153L13.8858 13.9894V17.0595H13.1914Z" fill="#858585"/>
<path d="M20.6539 13.3072H18.8311V14.3306H20.5671V15.0128H18.8311V16.4625H20.6539V17.0595H18.1367V12.625H20.6539V13.3072Z" fill="#858585"/>
<path d="M22.8258 13.3079V17.0601H22.1314V13.3079H21.0898V12.7109H23.8674V13.3079H22.8258Z" fill="#858585"/>
<path d="M24.9092 12.7116L26.0376 15.6963L27.2528 12.541L28.3811 15.6963L29.5963 12.7116H30.4643L28.4679 17.4019L27.3396 14.2466L26.1244 17.4019L24.2148 12.7116H24.9092Z" fill="#858585"/>
<path d="M30.5508 14.8435C30.5508 14.2466 30.8112 13.6496 31.2452 13.2232C31.6792 12.7969 32.2867 12.541 32.8943 12.541C33.5019 12.541 34.1095 12.7969 34.5435 13.2232C34.9775 13.6496 35.2379 14.2466 35.2379 14.8435C35.2379 15.4405 34.9775 16.0374 34.5435 16.4638C34.1095 16.8902 33.5019 17.146 32.8943 17.146C32.2867 17.146 31.766 16.9755 31.332 16.5491C30.8112 16.1227 30.5508 15.611 30.5508 14.8435ZM31.2452 14.8435C31.2452 15.3552 31.4188 15.6963 31.766 16.0374C32.1131 16.3785 32.4603 16.5491 32.8943 16.5491C33.3283 16.5491 33.7623 16.3785 34.1095 16.0374C34.4567 15.6963 34.6303 15.3552 34.6303 14.8435C34.6303 14.3319 34.4567 13.9907 34.1095 13.6496C33.7623 13.3085 33.4151 13.138 32.8943 13.138C32.4603 13.138 32.0263 13.3085 31.6792 13.6496C31.4188 13.9907 31.2452 14.4171 31.2452 14.8435Z" fill="#858585"/>
<path d="M37.6678 15.1834L39.0566 17.0595H38.1886L36.8867 15.2686H36.7999V17.0595H36.1055V12.625H36.8867C37.4942 12.625 37.9282 12.7103 38.1886 12.9661C38.449 13.222 38.6226 13.5631 38.6226 13.9042C38.6226 14.2453 38.5358 14.5011 38.3622 14.6717C38.1886 15.0128 37.9282 15.1834 37.6678 15.1834ZM36.7999 14.6717H36.9734C37.581 14.6717 37.9282 14.4158 37.9282 13.9895C37.9282 13.5631 37.581 13.3072 36.9734 13.3072H36.7131V14.6717H36.7999Z" fill="#858585"/>
<path d="M40.3593 14.4171L42.0953 12.6263H42.9632L40.9669 14.5877L42.9632 16.9755H42.0953L40.4461 15.0141L40.2725 15.1846V16.9755H39.5781V12.541H40.2725V14.4171H40.3593Z" fill="#858585"/>
</svg>
