<svg width="42" height="24" viewBox="0 0 42 24" fill="none">
<path d="M24.7318 12.0634C24.7318 18.6347 19.3358 23.9998 12.5827 23.9998C5.89422 23.9998 0.433594 18.6347 0.433594 12.0634C0.433594 5.49198 5.8296 0.126953 12.5181 0.126953C19.3358 0.126953 24.7318 5.49198 24.7318 12.0634Z" fill="#EA192A"/>
<path d="M41.111 11.9999C41.111 18.603 35.6827 23.9998 28.8973 23.9998C22.1765 23.9998 16.6836 18.603 16.6836 11.9999C16.6836 5.39678 22.1119 2.42201e-07 28.8327 2.42201e-07C35.6827 2.42201e-07 41.111 5.39678 41.111 11.9999Z" fill="#F9B532"/>
<path d="M24.7641 12.0634C24.7641 11.1745 24.6348 10.3491 24.5056 9.52369H17.0093C17.074 9.07925 17.2032 8.6983 17.3325 8.25386H24.0532C23.924 7.80942 23.7301 7.36498 23.5362 6.98403H17.8494C18.0433 6.53959 18.3018 6.15864 18.5603 5.7142H22.89C22.6315 5.26976 22.3084 4.82532 21.9207 4.44437H19.5296C19.9174 3.99993 20.3051 3.61898 20.7575 3.23804C18.6815 1.32536 15.8704 0.190445 12.8008 0.126953V23.9918C15.8946 23.9442 18.6653 22.7537 20.8221 20.8807C21.2744 20.4998 21.6622 20.0553 22.0499 19.6109H19.5296C19.2065 19.23 18.8834 18.7855 18.6249 18.4046H22.9546C23.2131 18.0236 23.4716 17.5792 23.6655 17.1347H17.9141C17.7202 16.7538 17.5263 16.3093 17.3971 15.8649H24.1178C24.5056 14.6665 24.7641 13.3967 24.7641 12.0634Z" fill="#EA192A"/>
<path d="M16.9444 15.0482L17.1382 13.9688C17.0736 13.9688 16.9444 14.0323 16.8151 14.0323C16.3628 14.0323 16.2981 13.7784 16.3628 13.6514L16.7505 11.4292H17.4614L17.6552 10.2228H17.009L17.1382 9.46094H15.8458C15.8458 9.46094 15.0703 13.6514 15.0703 14.1593C15.0703 14.9212 15.5227 15.2387 16.1043 15.2387C16.492 15.2387 16.8151 15.1117 16.9444 15.0482Z" fill="white"/>
<path d="M17.3945 13.0155C17.3945 14.7933 18.6224 15.2377 19.6563 15.2377C20.6257 15.2377 21.0134 15.0473 21.0134 15.0473L21.2719 13.8409C21.2719 13.8409 20.561 14.1584 19.9148 14.1584C18.4931 14.1584 18.7516 13.1425 18.7516 13.1425H21.4011C21.4011 13.1425 21.595 12.3171 21.595 11.9997C21.595 11.1743 21.1427 10.1584 19.721 10.1584C18.3639 10.0314 17.3945 11.4283 17.3945 13.0155ZM19.6563 11.1743C20.3672 11.1743 20.2379 11.9997 20.2379 12.0632H18.8162C18.8162 11.9997 18.9455 11.1743 19.6563 11.1743Z" fill="white"/>
<path d="M27.8628 15.0473L28.1213 13.6505C28.1213 13.6505 27.4751 13.968 27.0228 13.968C26.118 13.968 25.7303 13.2696 25.7303 12.5077C25.7303 10.9839 26.5058 10.1585 27.4105 10.1585C28.0567 10.1585 28.5737 10.5395 28.5737 10.5395L28.7676 9.20613C28.7676 9.20613 27.9921 8.88867 27.2812 8.88867C25.7949 8.88867 24.3086 10.1585 24.3086 12.5712C24.3086 14.1585 25.0841 15.2378 26.635 15.2378C27.152 15.2378 27.8628 15.0473 27.8628 15.0473Z" fill="white"/>
<path d="M9.83457 10.0312C8.92985 10.0312 8.28362 10.2852 8.28362 10.2852L8.08976 11.3646C8.08976 11.3646 8.67136 11.1106 9.51146 11.1106C9.96382 11.1106 10.3516 11.1741 10.3516 11.555C10.3516 11.809 10.2869 11.8725 10.2869 11.8725C10.2869 11.8725 9.89919 11.8725 9.70533 11.8725C8.60674 11.8725 7.37891 12.3169 7.37891 13.7772C7.37891 14.9201 8.15438 15.1741 8.60674 15.1741C9.51146 15.1741 9.89919 14.6026 9.96382 14.6026L9.89919 15.1106H11.0624L11.5794 11.6185C11.5794 10.0947 10.2869 10.0312 9.83457 10.0312ZM10.0931 12.8884C10.0931 13.0788 9.96382 14.0947 9.18834 14.0947C8.80061 14.0947 8.67136 13.7772 8.67136 13.5868C8.67136 13.2693 8.86523 12.8249 9.83457 12.8249C10.0284 12.8884 10.0931 12.8884 10.0931 12.8884Z" fill="white"/>
<path d="M12.8066 15.1731C13.1298 15.1731 14.7453 15.2366 14.7453 13.5223C14.7453 11.935 13.1944 12.2525 13.1944 11.6176C13.1944 11.3001 13.4529 11.1731 13.9052 11.1731C14.0991 11.1731 14.8099 11.2366 14.8099 11.2366L15.0038 10.0938C15.0038 10.0938 14.5515 9.9668 13.776 9.9668C12.8066 9.9668 11.8373 10.3477 11.8373 11.6176C11.8373 13.0779 13.4529 12.9509 13.4529 13.5223C13.4529 13.9033 13.0005 13.9668 12.6774 13.9668C12.0958 13.9668 11.5142 13.7763 11.5142 13.7763L11.3203 14.9191C11.3849 15.0461 11.708 15.1731 12.8066 15.1731Z" fill="white"/>
<path d="M38.5897 9.01562L38.3313 10.7299C38.3313 10.7299 37.8143 10.095 37.1034 10.095C35.9402 10.095 34.9063 11.4918 34.9063 13.1426C34.9063 14.1584 35.4232 15.2378 36.5218 15.2378C37.2973 15.2378 37.7497 14.7299 37.7497 14.7299L37.685 15.1743H38.9775L39.9468 9.07912L38.5897 9.01562ZM38.0081 12.3807C38.0081 13.0791 37.685 13.968 36.9742 13.968C36.5218 13.968 36.2633 13.587 36.2633 12.9521C36.2633 11.9362 36.7157 11.3013 37.2973 11.3013C37.7497 11.3013 38.0081 11.6188 38.0081 12.3807Z" fill="white"/>
<path d="M2.79033 15.1108L3.56581 10.5394L3.69505 15.1108H4.59977L6.27996 10.5394L5.56911 15.1108H6.92619L7.96015 9.01562H5.8276L4.53515 12.7616L4.47052 9.01562H2.59646L1.5625 15.1108H2.79033Z" fill="white"/>
<path d="M22.824 15.1105C23.2118 13.0153 23.2764 11.301 24.1811 11.6185C24.3104 10.7931 24.5042 10.4757 24.6335 10.1582C24.6335 10.1582 24.5689 10.1582 24.375 10.1582C23.7934 10.1582 23.341 10.9201 23.341 10.9201L23.4703 10.2217H22.2424L21.4023 15.174H22.824V15.1105Z" fill="white"/>
<path d="M30.8385 10.0312C29.9338 10.0312 29.2875 10.2852 29.2875 10.2852L29.0937 11.3646C29.0937 11.3646 29.6753 11.1106 30.5154 11.1106C30.9677 11.1106 31.3555 11.1741 31.3555 11.555C31.3555 11.809 31.2908 11.8725 31.2908 11.8725C31.2908 11.8725 30.9031 11.8725 30.7092 11.8725C29.6106 11.8725 28.3828 12.3169 28.3828 13.7772C28.3828 14.9201 29.1583 15.1741 29.6106 15.1741C30.5154 15.1741 30.9031 14.6026 30.9677 14.6026L30.9031 15.1106H32.0663L32.5833 11.6185C32.6479 10.0947 31.2908 10.0312 30.8385 10.0312ZM31.1616 12.8884C31.1616 13.0788 31.0323 14.0947 30.2569 14.0947C29.8691 14.0947 29.7399 13.7772 29.7399 13.5868C29.7399 13.2693 29.9338 12.8249 30.9031 12.8249C31.097 12.8884 31.097 12.8884 31.1616 12.8884Z" fill="white"/>
<path d="M33.6795 15.1105C34.0672 13.0153 34.1319 11.301 35.0366 11.6185C35.1658 10.7931 35.3597 10.4757 35.4889 10.1582C35.4889 10.1582 35.4243 10.1582 35.2305 10.1582C34.6489 10.1582 34.1965 10.9201 34.1965 10.9201L34.3257 10.2217H33.0979L32.2578 15.174H33.6795V15.1105Z" fill="white"/>
</svg>
