<svg width="24" height="24" viewBox="0 0 24 24" fill="none">
<path d="M24 12L18.5 7H14V3H0V20H4.2C4.6 21.2 5.7 22 7 22C8.3 22 9.4 21.2 9.8 20H12H14H15.2C15.6 21.2 16.7 22 18 22C19.3 22 20.4 21.2 20.8 20H24V12ZM17.9 8.6L21.8 12.2H14V8.6H17.9ZM7 20.4C6.2 20.4 5.6 19.8 5.6 19C5.6 18.2 6.2 17.6 7 17.6C7.8 17.6 8.4 18.2 8.4 19C8.4 19.8 7.8 20.4 7 20.4ZM9.9 18.4C9.7 17 8.4 16 7 16C5.6 16 4.3 17 4.1 18.4H1.6V4.6H12.4V18.4H9.9ZM18 20.4C17.2 20.4 16.6 19.8 16.6 19C16.6 18.2 17.2 17.6 18 17.6C18.8 17.6 19.4 18.2 19.4 19C19.4 19.8 18.8 20.4 18 20.4ZM20.9 18.4C20.7 17 19.4 16 18 16C16.6 16 15.3 17 15.1 18.4H14V13.8H22.4V18.4H20.9Z" fill="currentColor"/>
</svg>
