<svg width="24" height="24" viewBox="0 0 24 24" fill="none" xmlns="http://www.w3.org/2000/svg">
<rect width="24" height="24" fill="white"/>
<rect x="3.8" y="8.8" width="16.4" height="13.4" stroke="currentColor" stroke-width="1.6"/>
<rect x="9.8" y="16.8" width="4.4" height="5.4" stroke="currentColor" stroke-width="1.6"/>
<path d="M1 8L5 2H19L23 8" stroke="currentColor" stroke-width="1.6"/>
<path d="M9.14655 11.5279L8.5 10.6406L7.85346 11.5279C7.4533 12.077 6.99489 12.4951 6.51209 12.7751C6.01881 13.0612 5.50606 13.2 5 13.2C4.49394 13.2 3.98119 13.0612 3.48791 12.7751C2.99251 12.4878 2.52281 12.0551 2.11545 11.4848C1.70813 10.9145 1.37651 10.2251 1.14773 9.45182C0.991665 8.92433 0.886649 8.36852 0.835699 7.8H23.1643C23.1134 8.36852 23.0083 8.92433 22.8523 9.45182C22.6235 10.2251 22.2919 10.9145 21.8845 11.4848C21.4772 12.0551 21.0075 12.4878 20.5121 12.7751C20.0188 13.0612 19.5061 13.2 19 13.2C18.4939 13.2 17.9812 13.0612 17.4879 12.7751C17.0051 12.4951 16.5467 12.077 16.1465 11.5279L15.5 10.6406L14.8535 11.5279C14.4533 12.077 13.9949 12.4951 13.5121 12.7751C13.0188 13.0612 12.5061 13.2 12 13.2C11.4939 13.2 10.9812 13.0612 10.4879 12.7751C10.0051 12.4951 9.54671 12.077 9.14655 11.5279Z" fill="white" stroke="currentColor" stroke-width="1.6"/>
</svg>
