<svg width="36" height="36" viewBox="0 0 36 36" fill="none">
<rect width="36" height="36" fill="transparent"/>
<path d="M28.9091 4.51613H26.7273V1.12903C26.7273 0.799731 26.625 0.529234 26.4205 0.31754C26.2159 0.105847 25.9545 0 25.6364 0H21.2727C20.9545 0 20.6932 0.105847 20.4886 0.31754C20.2841 0.529234 20.1818 0.799731 20.1818 1.12903V4.51613H15.8182V1.12903C15.8182 0.799731 15.7159 0.529234 15.5114 0.31754C15.3068 0.105847 15.0455 0 14.7273 0H10.3636C10.0455 0 9.78409 0.105847 9.57955 0.31754C9.375 0.529234 9.27273 0.799731 9.27273 1.12903V4.51613H7.09091C6.77273 4.51613 6.51136 4.62198 6.30682 4.83367C6.10227 5.04536 6 5.31586 6 5.64516V33.871C6 34.2003 6.10227 34.4708 6.30682 34.6825C6.51136 34.8942 6.77273 35 7.09091 35H28.9091C29.2273 35 29.4886 34.8942 29.6932 34.6825C29.8977 34.4708 30 34.2003 30 33.871V5.64516C30 5.31586 29.8977 5.04536 29.6932 4.83367C29.4886 4.62198 29.2273 4.51613 28.9091 4.51613ZM8.18182 11.2903H27.8182V28.2258H8.18182V11.2903ZM22.3636 2.25806H24.5455V4.51613H22.3636V2.25806ZM11.4545 2.25806H13.6364V4.51613H11.4545V2.25806ZM27.8182 6.77419V9.03226H8.18182V6.77419H27.8182ZM8.18182 32.7419V30.4839H27.8182V32.7419H8.18182ZM21.1705 18.7349C21.0568 18.5232 20.9205 18.3585 20.7614 18.2409C20.6023 18.1233 20.4091 18.0645 20.1818 18.0645H18L19.9773 15.3478C20.1364 15.1361 20.1932 14.8656 20.1477 14.5363C20.1023 14.207 19.9659 13.9483 19.7386 13.7601C19.5341 13.5954 19.2727 13.5366 18.9545 13.5837C18.6364 13.6307 18.3864 13.7718 18.2045 14.0071L14.9318 18.5232C14.8409 18.6878 14.7727 18.876 14.7273 19.0877C14.6818 19.2994 14.7159 19.4876 14.8295 19.6522C14.9432 19.8169 15.0795 19.9698 15.2386 20.1109C15.3977 20.252 15.5909 20.3226 15.8182 20.3226H18L16.0227 23.0393C15.8636 23.251 15.8068 23.5215 15.8523 23.8508C15.8977 24.1801 16.0341 24.4388 16.2614 24.627C16.375 24.6741 16.4773 24.7211 16.5682 24.7681C16.6818 24.8152 16.7955 24.8387 16.9091 24.8387C17.0682 24.8387 17.2273 24.8034 17.3864 24.7329C17.5455 24.6623 17.6818 24.5447 17.7955 24.38L21.0682 19.8639C21.1591 19.6993 21.2273 19.5111 21.2727 19.2994C21.3182 19.0877 21.2841 18.8995 21.1705 18.7349Z" fill="currentColor"/>
</svg>
