<svg width="24" height="24" viewBox="0 0 24 24" fill="none" xmlns="http://www.w3.org/2000/svg">
<path fill-rule="evenodd" clip-rule="evenodd" d="M6.78589 5.65374C7.03975 4.76906 7.37013 3.95776 7.76514 3.24674C8.73257 1.50536 10.1968 0.199219 12 0.199219C13.8032 0.199219 15.2674 1.50536 16.2349 3.24674C16.6299 3.95776 16.9602 4.76906 17.2141 5.65374L22.4343 0.433533L23.5657 1.5649L19.1314 5.99922H20C21.1046 5.99922 22 6.89465 22 7.99922L24 21.9992C24 23.1038 23.1046 23.9992 22 23.9992H2C0.89543 23.9992 0 23.1038 0 21.9992L2 7.99922C2 6.89465 2.89543 5.99922 4 5.99922H4.86863L0.434315 1.5649L1.56569 0.433533L6.78589 5.65374ZM8.3518 5.99922C8.57006 5.26215 8.8454 4.59687 9.16379 4.02377C10.006 2.50779 11.0417 1.79922 12 1.79922C12.9583 1.79922 13.994 2.50779 14.8362 4.02377C15.1546 4.59687 15.4299 5.26215 15.6482 5.99922H8.3518ZM6.37091 7.59922C6.25893 8.36949 6.2 9.17393 6.2 9.99922H7.8C7.8 9.6483 7.81171 9.30315 7.83434 8.96493L10.8686 11.9992L1.74085 21.127L3.6 8.11293V7.99922C3.6 7.77831 3.77909 7.59922 4 7.59922H6.37091ZM12 13.1306L2.73137 22.3992H21.2686L12 13.1306ZM22.2592 21.127L13.1314 11.9992L16.1657 8.96493C16.1883 9.30315 16.2 9.6483 16.2 9.99922H17.8C17.8 9.17393 17.7411 8.36949 17.6291 7.59922H20C20.2209 7.59922 20.4 7.77831 20.4 7.99922V8.11293L22.2592 21.127ZM12 10.8678L8.73137 7.59922H15.2686L12 10.8678Z" fill="currentColor"></path>
</svg>