<svg width="36" height="36" viewBox="0 0 36 36" fill="none">
<rect width="36" height="36" fill="transparent"/>
<path d="M9 31C9.9375 31 10.7344 30.6686 11.3906 30.0057C12.0469 29.3428 12.375 28.5379 12.375 27.5909V21.9091H23.625V27.5909C23.625 28.5379 23.9531 29.3428 24.6094 30.0057C25.2656 30.6686 26.0625 31 27 31C27.9375 31 28.7344 30.6686 29.3906 30.0057C30.0469 29.3428 30.375 28.5379 30.375 27.5909V9.40909C30.375 8.46212 30.0469 7.6572 29.3906 6.99432C28.7344 6.33144 27.9375 6 27 6C26.0625 6 25.2656 6.33144 24.6094 6.99432C23.9531 7.6572 23.625 8.46212 23.625 9.40909V15.0909H12.375V9.40909C12.375 8.46212 12.0469 7.6572 11.3906 6.99432C10.7344 6.33144 9.9375 6 9 6C8.0625 6 7.26562 6.33144 6.60938 6.99432C5.95312 7.6572 5.625 8.46212 5.625 9.40909V27.5909C5.625 28.5379 5.95312 29.3428 6.60938 30.0057C7.26562 30.6686 8.0625 31 9 31ZM25.875 9.40909C25.875 9.10133 25.9805 8.84091 26.1914 8.62784C26.4258 8.3911 26.6953 8.27273 27 8.27273C27.3047 8.27273 27.5625 8.3911 27.7734 8.62784C28.0078 8.84091 28.125 9.10133 28.125 9.40909V27.5909C28.125 27.8987 28.0078 28.1709 27.7734 28.4077C27.5625 28.6207 27.3047 28.7273 27 28.7273C26.6953 28.7273 26.4258 28.6207 26.1914 28.4077C25.9805 28.1709 25.875 27.8987 25.875 27.5909V9.40909ZM23.625 17.3636V19.6364H12.375V17.3636H23.625ZM7.875 9.40909C7.875 9.10133 7.98047 8.84091 8.19141 8.62784C8.42578 8.3911 8.69531 8.27273 9 8.27273C9.30469 8.27273 9.5625 8.3911 9.77344 8.62784C10.0078 8.84091 10.125 9.10133 10.125 9.40909V27.5909C10.125 27.8987 10.0078 28.1709 9.77344 28.4077C9.5625 28.6207 9.30469 28.7273 9 28.7273C8.69531 28.7273 8.42578 28.6207 8.19141 28.4077C7.98047 28.1709 7.875 27.8987 7.875 27.5909V9.40909ZM1.125 19.6364H2.25V25.3182C2.25 25.6259 2.35547 25.8982 2.56641 26.1349C2.80078 26.348 3.07031 26.4545 3.375 26.4545C3.67969 26.4545 3.9375 26.348 4.14844 26.1349C4.38281 25.8982 4.5 25.6259 4.5 25.3182V11.6818C4.5 11.3741 4.38281 11.1136 4.14844 10.9006C3.9375 10.6638 3.67969 10.5455 3.375 10.5455C3.07031 10.5455 2.80078 10.6638 2.56641 10.9006C2.35547 11.1136 2.25 11.3741 2.25 11.6818V17.3636H1.125C0.820312 17.3636 0.550781 17.482 0.316406 17.7187C0.105469 17.9318 0 18.1922 0 18.5C0 18.8078 0.105469 19.08 0.316406 19.3168C0.550781 19.5298 0.820312 19.6364 1.125 19.6364ZM34.875 17.3636H33.75V11.6818C33.75 11.3741 33.6328 11.1136 33.3984 10.9006C33.1875 10.6638 32.9297 10.5455 32.625 10.5455C32.3203 10.5455 32.0508 10.6638 31.8164 10.9006C31.6055 11.1136 31.5 11.3741 31.5 11.6818V25.3182C31.5 25.6259 31.6055 25.8982 31.8164 26.1349C32.0508 26.348 32.3203 26.4545 32.625 26.4545C32.9297 26.4545 33.1875 26.348 33.3984 26.1349C33.6328 25.8982 33.75 25.6259 33.75 25.3182V19.6364H34.875C35.1797 19.6364 35.4375 19.5298 35.6484 19.3168C35.8828 19.08 36 18.8078 36 18.5C36 18.1922 35.8828 17.9318 35.6484 17.7187C35.4375 17.482 35.1797 17.3636 34.875 17.3636Z" fill="currentColor"/>
</svg>
