<svg version="1.1" id="Layer_1" xmlns="http://www.w3.org/2000/svg" xmlns:xlink="http://www.w3.org/1999/xlink" x="0px" y="0px"
	 viewBox="0 0 24 24" style="enable-background:new 0 0 24 24;" xml:space="preserve">
<g>
	<path fill="currentColor" d="M9.5,19C8.1,19,7,20.1,7,21.5S8.1,24,9.5,24s2.5-1.1,2.5-2.5S10.9,19,9.5,19z M9.5,22.4
		c-0.5,0-0.9-0.4-0.9-0.9s0.4-0.9,0.9-0.9s0.9,0.4,0.9,0.9S10,22.4,9.5,22.4z"/>
	<path fill="currentColor" d="M19.5,19c-1.4,0-2.5,1.1-2.5,2.5s1.1,2.5,2.5,2.5s2.5-1.1,2.5-2.5S20.9,19,19.5,19z M19.5,22.4
		c-0.5,0-0.9-0.4-0.9-0.9s0.4-0.9,0.9-0.9s0.9,0.4,0.9,0.9S20,22.4,19.5,22.4z"/>
	<polygon fill="currentColor" points="13.8,9.8 15.4,9.8 15.4,6.6 18.6,6.6 18.6,5 15.4,5 15.4,1.8 13.8,1.8 13.8,5 10.6,5 10.6,6.6
		13.8,6.6 	"/>
	<path fill="currentColor" d="M22.1,5h-1.9v1.7h1.9c0.1,0,0.1,0,0.2,0.1c0,0.1,0.1,0.2,0.1,0.4l-2,8.9c0,0.2-0.2,0.3-0.3,0.3H8.9
		c-0.1,0-0.2-0.1-0.3-0.3L6.8,7.8L6.6,7.1c0-0.2,0-0.3,0.1-0.3c0.1-0.1,0.1-0.1,0.2-0.1H9V5H6.9C6.6,5,6.4,5.1,6.2,5.1L5.1,0.2H0
		v1.6h3.9L5,7.3v0.1l2,9c0.2,1,1,1.6,1.9,1.6h11.3c0.9,0,1.6-0.6,1.8-1.6l2-9C24.2,6.2,23.3,5,22.1,5z"/>
</g>
</svg>
