<svg width="11" height="18" viewBox="0 0 11 18" fill="none">
<path d="M6.90938 5.04492C6.90938 4.5293 7.0125 4.11328 7.21875 3.79688C7.43646 3.48047 7.90625 3.32227 8.62813 3.32227L10.4672 3.30469V0.140625C10.3068 0.117188 9.97448 0.0878906 9.47031 0.0527344C8.9776 0.0175781 8.41615 0 7.78594 0C7.12135 0 6.51406 0.09375 5.96406 0.28125C5.41406 0.457031 4.93854 0.732422 4.5375 1.10742C4.14792 1.48242 3.84427 1.95117 3.62656 2.51367C3.40885 3.07617 3.3 3.73828 3.3 4.5V6.75H0V10.125H3.3L3.31719 18H6.90938V10.125H9.9L11 6.75H6.90938V5.04492Z" fill="currentColor"/>
</svg>
