<svg width="24" height="24" viewBox="0 0 24 24" fill="none" xmlns="http://www.w3.org/2000/svg">
<rect width="24" height="24" fill="white"/>
<path d="M2.82644 23.2C3.18517 17.8073 7.14887 13.8 12 13.8C16.8511 13.8 20.8148 17.8073 21.1736 23.2L2.82644 23.2Z" stroke="currentColor" stroke-width="1.6"/>
<circle cx="12" cy="10" r="9.2" fill="white" stroke="currentColor" stroke-width="1.6"/>
<mask id="path-3-inside-1" fill="white">
<path d="M21.6281 12.7019C22.0425 11.225 22.1117 9.67266 21.8302 8.16483C21.5487 6.657 20.9241 5.23414 20.0047 4.00632C19.0854 2.77849 17.8959 1.77861 16.5283 1.08403C15.1607 0.389442 13.6516 0.0187734 12.1179 0.000694615C10.5841 -0.0173842 9.06672 0.317611 7.68313 0.979766C6.29954 1.64192 5.08681 2.61349 4.13877 3.8193C3.19073 5.02512 2.53278 6.43286 2.21582 7.93363C1.89887 9.43441 1.9314 10.988 2.31091 12.4742L12 10L21.6281 12.7019Z"/>
</mask>
<path d="M21.6281 12.7019C22.0425 11.225 22.1117 9.67266 21.8302 8.16483C21.5487 6.657 20.9241 5.23414 20.0047 4.00632C19.0854 2.77849 17.8959 1.77861 16.5283 1.08403C15.1607 0.389442 13.6516 0.0187734 12.1179 0.000694615C10.5841 -0.0173842 9.06672 0.317611 7.68313 0.979766C6.29954 1.64192 5.08681 2.61349 4.13877 3.8193C3.19073 5.02512 2.53278 6.43286 2.21582 7.93363C1.89887 9.43441 1.9314 10.988 2.31091 12.4742L12 10L21.6281 12.7019Z" fill="white" stroke="currentColor" stroke-width="3.2" mask="url(#path-3-inside-1)"/>
</svg>
