<svg width="67" height="19" viewBox="0 0 67 19" fill="none">
<path d="M45.2132 0.861328H40.0546C39.7512 0.861328 39.4477 1.15946 39.296 1.45759L37.1719 14.5755C37.1719 14.8736 37.3236 15.0227 37.627 15.0227H40.3581C40.6615 15.0227 40.8132 14.8736 40.8132 14.5755L41.4201 10.8488C41.4201 10.5507 41.7236 10.2525 42.1787 10.2525H43.8477C47.3373 10.2525 49.3097 8.61281 49.7649 5.33334C50.0683 3.99173 49.7649 2.7992 49.158 2.05387C48.2477 1.30853 46.8822 0.861328 45.2132 0.861328ZM45.8201 5.78054C45.5166 7.56934 44.1511 7.56934 42.7856 7.56934H41.8753L42.4822 4.1408C42.4822 3.99173 42.6339 3.84267 42.9374 3.84267H43.2408C44.1511 3.84267 45.0615 3.84267 45.5166 4.43893C45.8201 4.588 45.8201 5.0352 45.8201 5.78054Z" fill="#469BDB"/>
<path d="M8.04132 0.861328H2.88274C2.57929 0.861328 2.27584 1.15946 2.12412 1.45759L-5.78778e-07 14.5755C-5.78778e-07 14.8736 0.151724 15.0227 0.45517 15.0227H2.88274C3.18618 15.0227 3.48963 14.7246 3.64135 14.4264L4.24825 10.8488C4.24825 10.5507 4.55169 10.2525 5.00686 10.2525H6.67581C10.1654 10.2525 12.1378 8.61281 12.593 5.33334C12.8965 3.99173 12.593 2.7992 11.9861 2.05387C11.0758 1.30853 9.862 0.861328 8.04132 0.861328ZM8.64822 5.78054C8.34477 7.56934 6.97926 7.56934 5.61375 7.56934H4.85514L5.46203 4.1408C5.46203 3.99173 5.61375 3.84267 5.9172 3.84267H6.22065C7.13098 3.84267 8.04132 3.84267 8.49649 4.43893C8.64821 4.588 8.79994 5.0352 8.64822 5.78054Z" fill="#283B82"/>
<path d="M23.6683 5.63212H21.2408C21.0891 5.63212 20.7856 5.78118 20.7856 5.93025L20.6339 6.67559L20.4822 6.37745C19.8753 5.63212 18.8132 5.33398 17.5994 5.33398C14.8684 5.33398 12.4408 7.42092 11.9857 10.2532C11.6822 11.7439 12.1374 13.0855 12.896 13.9799C13.6546 14.8743 14.7167 15.1724 16.0822 15.1724C18.358 15.1724 19.5718 13.8308 19.5718 13.8308L19.4201 14.5761C19.4201 14.8743 19.5718 15.0233 19.8753 15.0233H22.1511C22.4546 15.0233 22.758 14.7252 22.9097 14.4271L24.2752 6.07932C24.1235 5.93025 23.8201 5.63212 23.6683 5.63212ZM20.1787 10.4023C19.8753 11.7439 18.8132 12.7873 17.296 12.7873C16.5374 12.7873 15.9305 12.4892 15.627 12.1911C15.3236 11.7439 15.1719 11.1476 15.1719 10.4023C15.3236 9.06066 16.5374 8.01719 17.9029 8.01719C18.6615 8.01719 19.1167 8.31532 19.5718 8.61346C20.027 9.06066 20.1787 9.80599 20.1787 10.4023Z" fill="#283B82"/>
<path d="M60.6879 5.63212H58.2603C58.1086 5.63212 57.8051 5.78118 57.8051 5.93025L57.6534 6.67559L57.5017 6.37745C56.8948 5.63212 55.8327 5.33398 54.619 5.33398C51.8879 5.33398 49.4604 7.42092 49.0052 10.2532C48.7018 11.7439 49.1569 13.0855 49.9155 13.9799C50.6742 14.8743 51.7362 15.1724 53.1017 15.1724C55.3776 15.1724 56.5914 13.8308 56.5914 13.8308L56.4396 14.5761C56.4396 14.8743 56.5914 15.0233 56.8948 15.0233H59.1707C59.4741 15.0233 59.7775 14.7252 59.9293 14.4271L61.2948 6.07932C61.143 5.93025 60.9913 5.63212 60.6879 5.63212ZM57.1982 10.4023C56.8948 11.7439 55.8327 12.7873 54.3155 12.7873C53.5569 12.7873 52.95 12.4892 52.6466 12.1911C52.3431 11.7439 52.1914 11.1476 52.1914 10.4023C52.3431 9.06066 53.5569 8.01719 54.9224 8.01719C55.681 8.01719 56.1362 8.31532 56.5914 8.61346C57.1983 9.06066 57.35 9.80599 57.1982 10.4023Z" fill="#469BDB"/>
<path d="M36.8702 5.63281H34.2909C33.9874 5.63281 33.8357 5.78188 33.684 5.93095L30.3461 10.9992L28.8289 6.22908C28.6771 5.93095 28.5254 5.78188 28.0702 5.78188H25.6427C25.3392 5.78188 25.1875 6.08001 25.1875 6.37815L27.9185 14.2787L25.3392 17.8563C25.1875 18.1544 25.3392 18.6016 25.6427 18.6016H28.0702C28.3737 18.6016 28.5254 18.4526 28.6771 18.3035L37.0219 6.52722C37.4771 6.08001 37.1736 5.63281 36.8702 5.63281Z" fill="#283B82"/>
<path d="M63.5733 1.30974L61.4492 14.7258C61.4492 15.0239 61.6009 15.173 61.9044 15.173H64.0285C64.332 15.173 64.6354 14.8748 64.7871 14.5767L66.9112 1.4588C66.9112 1.16067 66.7595 1.0116 66.4561 1.0116H64.0285C63.8768 0.862538 63.7251 1.01161 63.5733 1.30974Z" fill="#469BDB"/>
</svg>
