<svg version="1.1" xmlns="http://www.w3.org/2000/svg" x="0px" y="0px" viewBox="0 0 24 24" style="enable-background:new 0 0 24 24;" xmlns:xlink="http://www.w3.org/1999/xlink" xml:space="preserve">
<style type="text/css">
	.st0{fill:currentColor;}
</style>
<g>
	<path class="st0" d="M21.3,12.2L21.3,12.2c0-1.5,1.2-2.6,2.6-2.6H24c-0.5-2.5-1.8-4.7-3.6-6.4c-0.2,0.3-0.5,0.6-0.8,0.8
		c0,0-0.6,0.5-1.5,0.5c-0.5,0-1-0.1-1.5-0.5c0,0-1.1-0.6-1.1-2.3c0-0.4,0.1-0.7,0.3-1.1l0,0C14.6,0.2,13.3,0,12,0
		c-1.2,0-2.4,0.2-3.5,0.5c0.6,1.2,0.1,2.7-1.1,3.4C7,4.1,6.5,4.2,6.1,4.2C5.2,4.2,4.4,3.8,3.9,3C2.1,4.6,0.7,6.7,0.1,9.1
		c1.4,0.1,2.4,1.3,2.4,2.6c0,1.4-1.1,2.5-2.5,2.6c0.5,2.4,1.7,4.6,3.5,6.3c0.5-0.8,1.3-1.2,2.2-1.2c0.5,0,0.9,0.1,1.4,0.4
		c1.2,0.7,1.7,2.3,1,3.5l0,0c1.3,0.4,2.6,0.7,4,0.7c1.2,0,2.3-0.2,3.4-0.5c-0.7-1.2-0.2-2.8,1-3.5c0.4-0.2,0.8-0.3,1.3-0.3
		c1,0,1.9,0.5,2.4,1.4c1.9-1.6,3.3-3.8,3.9-6.3h0C22.4,14.8,21.3,13.6,21.3,12.2z M20.1,18.8c-0.7-0.5-1.5-0.7-2.4-0.7
		c-0.7,0-1.4,0.2-2.1,0.5c-1,0.6-1.7,1.5-2,2.6c-0.1,0.4-0.1,0.7-0.1,1.1c-0.5,0.1-1,0.1-1.4,0.1c-0.7,0-1.4-0.1-2.1-0.2
		c0-0.4,0-0.8-0.1-1.2c-0.3-1.1-1-2-2-2.5c-0.7-0.4-1.4-0.6-2.1-0.6c-0.7,0-1.5,0.2-2.1,0.5c-0.7-0.9-1.3-1.9-1.7-3
		c1.3-0.7,2.2-2.1,2.2-3.6c0-1.5-0.8-2.9-2-3.6c0.4-1.1,1-2,1.8-2.9c0.6,0.4,1.4,0.6,2.2,0.6c0.7,0,1.5-0.2,2.1-0.5
		c1.4-0.8,2.1-2.1,2.2-3.6c0.5-0.1,1.1-0.1,1.7-0.1c0.6,0,1.2,0.1,1.9,0.2c0,2,1.1,3.1,1.8,3.6c0.7,0.5,1.6,0.8,2.4,0.8
		c1,0,1.8-0.4,2.2-0.6c0.7,0.9,1.3,1.9,1.7,3c-1.4,0.7-2.3,2.1-2.3,3.7v0.1c0,1.6,0.9,3,2.2,3.7C21.5,16.9,20.8,17.9,20.1,18.8z"></path>
	<path class="st0" d="M12,8c-2.2,0-4,1.8-4,4c0,2.2,1.8,4,4,4c2.2,0,4-1.8,4-4C16,9.8,14.2,8,12,8z M12,14.4c-1.3,0-2.4-1.1-2.4-2.4
		s1.1-2.4,2.4-2.4s2.4,1.1,2.4,2.4S13.3,14.4,12,14.4z"></path>
</g>
</svg>