<svg width="27" height="36" viewBox="0 0 27 36" fill="none">
<path d="M1.125 36H25.875C26.2031 36 26.4727 35.8945 26.6836 35.6836C26.8945 35.4727 27 35.2031 27 34.875V1.125C27 0.796875 26.8945 0.527344 26.6836 0.316406C26.4727 0.105469 26.2031 0 25.875 0H1.125C0.796875 0 0.527344 0.105469 0.316406 0.316406C0.105469 0.527344 0 0.796875 0 1.125V34.875C0 35.2031 0.105469 35.4727 0.316406 35.6836C0.527344 35.8945 0.796875 36 1.125 36ZM2.25 2.25H24.75V33.75H2.25V2.25ZM13.5 15.75C12.3984 15.75 11.3672 15.9609 10.4062 16.3828C9.46875 16.7812 8.63672 17.332 7.91016 18.0352C7.20703 18.7383 6.64453 19.5703 6.22266 20.5312C5.82422 21.4922 5.625 22.5234 5.625 23.625C5.625 24.7266 5.82422 25.7578 6.22266 26.7188C6.64453 27.6562 7.20703 28.4883 7.91016 29.2148C8.61328 29.918 9.44531 30.4805 10.4062 30.9023C11.3672 31.3008 12.3984 31.5 13.5 31.5C14.6016 31.5 15.6211 31.3008 16.5586 30.9023C17.5195 30.4805 18.3516 29.918 19.0547 29.2148C19.7812 28.4883 20.3438 27.6562 20.7422 26.7188C21.1641 25.7578 21.375 24.7266 21.375 23.625C21.375 22.5234 21.1641 21.5039 20.7422 20.5664C20.3438 19.6055 19.793 18.7734 19.0898 18.0703C18.3867 17.3438 17.5547 16.7812 16.5938 16.3828C15.6328 15.9609 14.6016 15.75 13.5 15.75ZM13.5 29.25C11.9297 29.25 10.5938 28.7109 9.49219 27.6328C8.41406 26.5312 7.875 25.1953 7.875 23.625C7.875 22.0547 8.41406 20.7305 9.49219 19.6523C10.5938 18.5508 11.9297 18 13.5 18C15.0703 18 16.3945 18.5508 17.4727 19.6523C18.5742 20.7305 19.125 22.0547 19.125 23.625C19.125 25.1953 18.5742 26.5312 17.4727 27.6328C16.3945 28.7109 15.0703 29.25 13.5 29.25ZM13.5 13.5C14.7422 13.5 15.7969 13.0664 16.6641 12.1992C17.5547 11.3086 18 10.2422 18 9C18 7.75781 17.5547 6.70312 16.6641 5.83594C15.7969 4.94531 14.7422 4.5 13.5 4.5C12.2578 4.5 11.1914 4.94531 10.3008 5.83594C9.43359 6.70312 9 7.75781 9 9C9 10.2422 9.43359 11.3086 10.3008 12.1992C11.1914 13.0664 12.2578 13.5 13.5 13.5ZM13.5 6.75C14.1094 6.75 14.6367 6.97266 15.082 7.41797C15.5273 7.86328 15.75 8.39062 15.75 9C15.75 9.60938 15.5273 10.1367 15.082 10.582C14.6367 11.0273 14.1094 11.25 13.5 11.25C12.8906 11.25 12.3633 11.0273 11.918 10.582C11.4727 10.1367 11.25 9.60938 11.25 9C11.25 8.39062 11.4727 7.86328 11.918 7.41797C12.3633 6.97266 12.8906 6.75 13.5 6.75ZM15.75 23.625C15.75 24.2578 15.5273 24.7969 15.082 25.2422C14.6602 25.6641 14.1328 25.875 13.5 25.875C12.8672 25.875 12.3281 25.6641 11.8828 25.2422C11.4609 24.7969 11.25 24.2578 11.25 23.625C11.25 22.9922 11.4609 22.4648 11.8828 22.043C12.3281 21.5977 12.8672 21.375 13.5 21.375C14.1328 21.375 14.6602 21.5977 15.082 22.043C15.5273 22.4648 15.75 22.9922 15.75 23.625Z" fill="currentColor"/>
</svg>
