<svg  xmlns="http://www.w3.org/2000/svg" x="0px" y="0px" width="24" height="24" viewBox="0 0 24 24">
<path fill="currentColor" d="M11.2,17.9V20h1.6v-2.1c1.3-0.4,2.2-1.5,2.2-2.9c0-1.7-1.3-3-3-3s-3,1.3-3,3C9,16.4,9.9,17.5,11.2,17.9z
	 M12,13.6c0.8,0,1.4,0.6,1.4,1.4s-0.6,1.4-1.4,1.4s-1.4-0.6-1.4-1.4S11.2,13.6,12,13.6z"/>
<path fill="currentColor" d="M17.8,8C17.8,8,17.8,8,17.8,8l-1.6,0c0,0,0,0,0,0H7.8c0-3,2-5.2,4.2-5.2c0.8,0,1.6,0.3,2.3,0.9l1.2-1.1
	c-0.9-0.8-2.1-1.3-3.4-1.3C8.7,1.2,6.2,4.4,6.2,8H3v16h18V8H17.8z M19.4,22.4H4.6V9.6h14.8V22.4z"/>
</svg>
