<svg width="16" height="16" viewBox="0 0 16 16" fill="none">
<path d="M13.1719 4.95312L14.7188 3.40625L12.5938 1.28125L11.0469 2.82813C10.8073 2.69271 10.5573 2.57292 10.2969 2.46875C10.0365 2.35417 9.77083 2.26562 9.5 2.20312V0H6.5V2.20312C6.22917 2.26562 5.96354 2.35417 5.70313 2.46875C5.44271 2.57292 5.19271 2.69271 4.95312 2.82813L3.40625 1.28125L1.28125 3.40625L2.82813 4.95312C2.69271 5.19271 2.56771 5.44271 2.45312 5.70313C2.34896 5.96354 2.26562 6.22917 2.20312 6.5H0V9.5H2.20312C2.26562 9.77083 2.34896 10.0365 2.45312 10.2969C2.56771 10.5573 2.69271 10.8073 2.82813 11.0469L1.28125 12.5938L3.40625 14.7188L4.95312 13.1719C5.19271 13.3073 5.44271 13.4323 5.70313 13.5469C5.96354 13.651 6.22917 13.7344 6.5 13.7969V16H9.5V13.7969C9.77083 13.7344 10.0365 13.651 10.2969 13.5469C10.5573 13.4323 10.8073 13.3073 11.0469 13.1719L12.5938 14.7188L14.7188 12.5938L13.1719 11.0469C13.3073 10.8073 13.4271 10.5573 13.5313 10.2969C13.6458 10.0365 13.7344 9.77083 13.7969 9.5H16V6.5H13.7969C13.7344 6.22917 13.6458 5.96354 13.5313 5.70313C13.4271 5.44271 13.3073 5.19271 13.1719 4.95312ZM8 10.5C7.3125 10.5 6.72396 10.2552 6.23438 9.76562C5.74479 9.27604 5.5 8.6875 5.5 8C5.5 7.3125 5.74479 6.72396 6.23438 6.23438C6.72396 5.74479 7.3125 5.5 8 5.5C8.6875 5.5 9.27604 5.74479 9.76562 6.23438C10.2552 6.72396 10.5 7.3125 10.5 8C10.5 8.6875 10.2552 9.27604 9.76562 9.76562C9.27604 10.2552 8.6875 10.5 8 10.5Z" fill="white"/>
</svg>
