<svg width="18" height="18" viewBox="0 0 18 18" fill="none">
<path d="M8.99995 1.62165C11.403 1.62165 11.6877 1.63084 12.6368 1.67414C13.5143 1.71418 13.9908 1.86077 14.3079 1.98402C14.6988 2.1283 15.0525 2.35835 15.3428 2.65727C15.6417 2.94757 15.8717 3.30118 16.016 3.69209C16.1392 4.00923 16.2859 4.48577 16.3259 5.36326C16.3692 6.31231 16.3784 6.59694 16.3784 9.00012C16.3784 11.4033 16.3692 11.6879 16.3259 12.637C16.2858 13.5145 16.1392 13.991 16.016 14.3082C15.8663 14.6963 15.6369 15.0488 15.3428 15.343C15.0486 15.6372 14.6961 15.8665 14.3079 16.0162C13.9908 16.1395 13.5143 16.2861 12.6368 16.3261C11.6879 16.3694 11.4033 16.3786 8.99995 16.3786C6.5966 16.3786 6.31208 16.3694 5.36311 16.3261C4.48563 16.2861 4.00913 16.1394 3.69196 16.0162C3.30105 15.872 2.94744 15.6419 2.65714 15.343C2.35823 15.0527 2.12817 14.6991 1.9839 14.3082C1.86064 13.991 1.71403 13.5145 1.67401 12.637C1.63072 11.688 1.62153 11.4033 1.62153 9.00012C1.62153 6.59694 1.63072 6.31238 1.67401 5.36326C1.71406 4.48577 1.86064 4.00926 1.9839 3.69209C2.12819 3.30116 2.35827 2.94754 2.65721 2.65723C2.94752 2.35832 3.30112 2.12826 3.69203 1.98398C4.00916 1.86073 4.4857 1.71411 5.36319 1.6741C6.31223 1.6308 6.59685 1.62162 9.00002 1.62162L8.99995 1.62165ZM9.00002 0C6.55577 0 6.24917 0.0103604 5.28938 0.0541599C4.3314 0.097888 3.6772 0.250007 3.10474 0.472506C2.50422 0.698493 1.96022 1.05275 1.51068 1.51058C1.05275 1.9601 0.698392 2.50411 0.472324 3.10466C0.250005 3.67716 0.0978872 4.33137 0.0543381 5.28935C0.0103603 6.24915 0 6.55575 0 9.00002C0 11.4443 0.0103603 11.7509 0.0543381 12.7107C0.0980659 13.6687 0.250184 14.3229 0.472681 14.8953C0.698667 15.4959 1.05292 16.0399 1.51075 16.4894C1.96029 16.9472 2.50429 17.3015 3.10481 17.5275C3.67731 17.75 4.33151 17.9021 5.28945 17.9458C6.24939 17.9896 6.55587 18 9.00009 18C11.4443 18 11.7509 17.9896 12.7107 17.9458C13.6687 17.9021 14.3229 17.75 14.8954 17.5275C15.4932 17.2963 16.0362 16.9427 16.4894 16.4894C16.9427 16.0362 17.2963 15.4932 17.5275 14.8953C17.75 14.3228 17.9021 13.6686 17.9458 12.7107C17.9896 11.7507 18 11.4443 18 9.00002C18 6.55578 17.9896 6.24915 17.9458 5.28935C17.9021 4.33137 17.75 3.67716 17.5275 3.10469C17.3015 2.50417 16.9473 1.96016 16.4894 1.51062C16.0399 1.0527 15.4958 0.698362 14.8953 0.472328C14.3228 0.250007 13.6686 0.097888 12.7106 0.0543386C11.7508 0.0103604 11.4442 0 8.99995 0H9.00002Z" fill="currentColor"/>
<path d="M8.99995 4.37838C8.08588 4.37838 7.19234 4.64944 6.43232 5.15727C5.6723 5.6651 5.07994 6.3869 4.73015 7.23139C4.38035 8.07589 4.28882 9.00514 4.46715 9.90165C4.64547 10.7982 5.08564 11.6217 5.73198 12.268C6.37832 12.9144 7.20182 13.3545 8.09832 13.5329C8.99482 13.7112 9.92407 13.6197 10.7686 13.2699C11.613 12.9201 12.3348 12.3277 12.8427 11.5677C13.3505 10.8076 13.6215 9.91409 13.6215 9.00002C13.6215 7.77428 13.1346 6.59875 12.2679 5.73203C11.4012 4.8653 10.2257 4.37838 8.99995 4.37838ZM8.99995 12C8.40661 12 7.8266 11.824 7.33327 11.4944C6.83993 11.1647 6.45543 10.6962 6.22837 10.148C6.00132 9.59986 5.94191 8.99667 6.05767 8.41473C6.17343 7.83279 6.45915 7.29825 6.8787 6.8787C7.29826 6.45915 7.8328 6.17343 8.41473 6.05768C8.99667 5.94193 9.59986 6.00134 10.148 6.2284C10.6962 6.45546 11.1647 6.83998 11.4944 7.33332C11.824 7.82666 11.9999 8.40668 11.9999 9.00002C11.9999 9.79567 11.6839 10.5587 11.1213 11.1213C10.5586 11.6839 9.79559 12 8.99995 12Z" fill="currentColor"/>
<path d="M13.8041 5.27577C14.4006 5.27577 14.8841 4.79225 14.8841 4.19579C14.8841 3.59933 14.4006 3.1158 13.8041 3.1158C13.2077 3.1158 12.7242 3.59933 12.7242 4.19579C12.7242 4.79225 13.2077 5.27577 13.8041 5.27577Z" fill="currentColor"/>
</svg>
