<svg width="65" height="22" viewBox="0 0 65 22" fill="none">
<path d="M6.32813 5.52529H8.53663L7.43238 2.76367L6.32813 5.52529Z" fill="#017AAB"/>
<path d="M55.2154 0.199218V1.38277L54.6131 0.199218H49.8949V1.38277L49.2926 0.199218H42.8678C41.7636 0.199218 40.8601 0.396477 40.057 0.790994V0.199218H35.5396V0.790994C35.0377 0.396477 34.4354 0.199218 33.6323 0.199218H17.47L16.3658 2.66495L15.2615 0.199218H10.1418V1.38277L9.5395 0.199218H5.22287L3.21514 4.83479L0.90625 9.96352H3.21514H6.02597L6.62829 8.38545H8.0337L8.63602 9.96352H14.4584V8.77996L14.9604 9.96352H17.8716L18.3735 8.77996V9.96352H32.3273V7.39915H32.528C32.7288 7.39915 32.7288 7.39915 32.7288 7.69504V9.86489H39.9566V9.27311C40.559 9.569 41.4624 9.86489 42.6671 9.86489H45.6787L46.281 8.28682H47.6864L48.2887 9.86489H54.1111V8.38545L55.0146 9.86489H59.7328V0.199218H55.2154ZM21.2847 8.48408H19.5782V3.05947L17.1689 8.48408H15.6631L13.2538 3.05947V8.48408H9.84066L9.13795 7.00464H5.72481L5.12249 8.5827H3.21514L6.22674 1.58003H8.7364L11.5472 8.18819V1.58003H14.2577L16.4662 6.31423L18.4739 1.58003H21.2847V8.48408ZM28.111 3.05947H24.1959V4.34165H28.0106V5.72246H24.1959V7.10327H28.111V8.5827H22.4894V1.58003H28.111V3.05947ZM35.64 5.91972C35.8408 6.31423 35.9412 6.61012 35.9412 7.2019V8.5827H34.2346V7.69504C34.2346 7.30052 34.2346 6.70875 33.9334 6.31423C33.6323 6.01834 33.3311 6.01835 32.7288 6.01835H30.9218V8.5827H29.2153V1.58003H33.03C33.9334 1.58003 34.5358 1.58003 35.0377 1.87592C35.5396 2.1718 35.8408 2.66495 35.8408 3.45398C35.8408 4.53891 35.1381 5.13068 34.6361 5.32794C35.1381 5.42657 35.4392 5.72246 35.64 5.91972ZM38.6516 8.48408H36.945V1.4814H38.6516V8.48408ZM58.4278 8.48408H56.0185L52.8061 3.25673V8.48408H49.393L48.7907 7.00464H45.2771L44.6748 8.5827H42.7675C41.9644 8.5827 40.9605 8.38545 40.3582 7.79367C39.7559 7.2019 39.4547 6.41286 39.4547 5.13068C39.4547 4.14439 39.6555 3.1581 40.3582 2.36906C40.8601 1.77729 41.7636 1.58003 42.8678 1.58003H44.474V3.05947H42.8678C42.2655 3.05947 41.9644 3.1581 41.5628 3.45398C41.2617 3.74987 41.0609 4.34165 41.0609 5.03205C41.0609 5.82109 41.1613 6.31423 41.5628 6.70875C41.864 7.00464 42.2655 7.10327 42.7675 7.10327H43.4702L45.7791 1.67866H48.2887L51.0995 8.28682V1.67866H53.6092L56.5204 6.51149V1.67866H58.227V8.48408H58.4278Z" fill="#017AAB"/>
<path d="M45.8789 5.52529H48.1878L47.0835 2.76367L45.8789 5.52529Z" fill="#017AAB"/>
<path d="M28.8132 19.7273V14.1055L26.2031 16.8671L28.8132 19.7273Z" fill="#017AAB"/>
<path d="M18.0703 14.7969V16.0791H21.7846V17.4599H18.0703V18.9393H22.1862L24.0935 16.8681L22.2865 14.7969H18.0703Z" fill="#017AAB"/>
<path d="M32.6316 14.7969H30.5234V16.5722H32.7319C33.3343 16.5722 33.7358 16.2763 33.7358 15.6845C33.6354 15.0928 33.2339 14.7969 32.6316 14.7969Z" fill="#017AAB"/>
<path d="M63.6473 16.4754V12.0371H62.4426H59.431C58.5275 12.0371 57.8248 12.2344 57.3229 12.6289V12.0371H52.7051C52.0024 12.0371 51.0989 12.2344 50.6974 12.6289V12.0371H42.5661V12.6289C41.9638 12.1357 40.8595 12.0371 40.3576 12.0371H34.9367V12.6289C34.4348 12.1357 33.2301 12.0371 32.6278 12.0371H26.6046L25.1992 13.5165L23.8942 12.0371H14.8594V21.7028H23.6934L25.0988 20.2233L26.4038 21.7028H31.8247V19.4343H32.5274C33.2301 19.4343 34.1336 19.4343 34.8363 19.1384V21.8014H39.3537V19.237H39.5545C39.8556 19.237 39.8556 19.237 39.8556 19.5329V21.8014H53.5082C54.4117 21.8014 55.3152 21.6041 55.8171 21.2096V21.8014H60.1337C61.0372 21.8014 61.9407 21.7028 62.543 21.3083C63.5469 20.7165 64.1492 19.6316 64.1492 18.3494C64.1492 17.659 63.9484 16.9686 63.6473 16.4754ZM32.5274 18.0535H30.5197V20.4206H27.3073L25.2996 18.1521L23.1915 20.4206H16.5659V13.4179H23.2919L25.2996 15.6864L27.4077 13.4179H32.7282C34.0332 13.4179 35.539 13.8124 35.539 15.6864C35.4386 17.659 34.0332 18.0535 32.5274 18.0535ZM42.5661 17.659C42.7669 17.9549 42.8672 18.3494 42.8672 18.9412V20.322H41.1607V19.4343C41.1607 19.0398 41.1607 18.3494 40.8595 18.0535C40.6587 17.7576 40.2572 17.7576 39.6549 17.7576H37.8479V20.322H36.1413V13.3193H39.956C40.7591 13.3193 41.4618 13.3193 41.9638 13.6152C42.4657 13.9111 42.8672 14.4042 42.8672 15.1932C42.8672 16.2782 42.1645 16.8699 41.6626 17.0672C42.1645 17.2645 42.4657 17.4617 42.5661 17.659ZM49.4928 14.7987H45.5777V16.0809H49.3924V17.4617H45.5777V18.8425H49.4928V20.322H43.8711V13.3193H49.4928V14.7987ZM53.709 20.322H50.4966V18.8425H53.709C54.0101 18.8425 54.2109 18.8425 54.4117 18.6453C54.5121 18.5466 54.6125 18.3494 54.6125 18.1521C54.6125 17.9549 54.5121 17.7576 54.4117 17.659C54.3113 17.5603 54.1105 17.4617 53.8094 17.4617C52.2032 17.3631 50.2958 17.4617 50.2958 15.2919C50.2958 14.3056 50.8982 13.2207 52.7051 13.2207H56.0179V14.8974H52.9059C52.6047 14.8974 52.404 14.8974 52.2032 14.996C52.0024 15.0946 52.0024 15.2919 52.0024 15.4891C52.0024 15.785 52.2032 15.8836 52.404 15.9823C52.6047 16.0809 52.8055 16.0809 53.0063 16.0809H53.9098C54.8132 16.0809 55.4156 16.2782 55.8171 16.6727C56.1183 16.9686 56.319 17.4617 56.319 18.1521C56.319 19.6316 55.4156 20.322 53.709 20.322ZM62.3422 19.6316C61.9407 20.0261 61.238 20.322 60.2341 20.322H57.0218V18.8425H60.2341C60.5353 18.8425 60.7361 18.8425 60.9368 18.6453C61.0372 18.5466 61.1376 18.3494 61.1376 18.1521C61.1376 17.9549 61.0372 17.7576 60.9368 17.659C60.8364 17.5603 60.6357 17.4617 60.3345 17.4617C58.7283 17.3631 56.821 17.4617 56.821 15.2919C56.821 14.3056 57.4233 13.2207 59.2303 13.2207H62.543V14.8974H59.5314C59.2303 14.8974 59.0295 14.8974 58.8287 14.996C58.6279 15.0946 58.6279 15.2919 58.6279 15.4891C58.6279 15.785 58.7283 15.8836 59.0295 15.9823C59.2303 16.0809 59.431 16.0809 59.6318 16.0809H60.5353C61.4388 16.0809 62.0411 16.2782 62.4426 16.6727C62.543 16.6727 62.543 16.7713 62.543 16.7713C62.8442 17.1658 62.9446 17.659 62.9446 18.1521C62.9446 18.7439 62.7438 19.237 62.3422 19.6316Z" fill="#017AAB"/>
<path d="M28.8132 19.7273V14.1055L26.2031 16.8671L28.8132 19.7273Z" fill="#017AAB"/>
<path d="M55.0117 9.57031L55.2125 9.8662H55.3129L55.0117 9.57031Z" fill="#228FE0"/>
<path d="M39.9441 14.7969H37.8359V16.5722H40.0444C40.6468 16.5722 41.0483 16.2763 41.0483 15.6845C40.9479 15.0928 40.5464 14.7969 39.9441 14.7969Z" fill="#017AAB"/>
<path d="M33.03 2.88672H30.9219V4.66205H33.1304C33.7327 4.66205 34.1342 4.36616 34.1342 3.77438C34.0339 3.18261 33.6323 2.88672 33.03 2.88672Z" fill="#017AAB"/>
</svg>
