<svg width="24" height="24" viewBox="0 0 24 24" fill="none" xmlns="http://www.w3.org/2000/svg">
<rect width="24" height="24" fill="white"/>
<circle cx="12" cy="12" r="11.2" stroke="currentColor" stroke-width="1.6"/>
<path d="M8 9C8 8.20888 8.2346 7.43552 8.67412 6.77772C9.11365 6.11992 9.73836 5.60723 10.4693 5.30448C11.2002 5.00173 12.0044 4.92252 12.7804 5.07686C13.5563 5.2312 14.269 5.61216 14.8284 6.17157C15.3878 6.73098 15.7688 7.44372 15.9231 8.21964C16.0775 8.99556 15.9983 9.79983 15.6955 10.5307C15.3928 11.2616 14.8801 11.8864 14.2223 12.3259C13.5645 12.7654 12.7911 13 12 13L12 16" stroke="currentColor" stroke-width="1.6"/>
<path d="M12 18V20" stroke="currentColor" stroke-width="1.6"/>
</svg>
