<svg width="50" height="17" viewBox="0 0 50 17" fill="none">
<path fill-rule="evenodd" clip-rule="evenodd" d="M15.2258 16.4069L19.8456 1.1741H23.9678L19.3477 16.4069H15.2258ZM13.3831 1.17826L9.67505 7.63548C8.73111 9.32667 8.17937 10.1809 7.91404 11.2496H7.85759C7.92325 9.89476 7.73429 8.2315 7.71646 7.29142L7.30703 1.17826H0.368183L0.296875 1.58798C2.07957 1.58798 3.13671 2.48349 3.42759 4.31521L4.78006 16.4069H9.05051L17.6853 1.17826H13.3831ZM45.4392 16.4069L45.3254 14.1414L40.1782 14.1373L39.1255 16.4066H34.6503L42.7649 1.20292H48.258L49.6321 16.4066H45.4392V16.4069ZM44.9665 7.42156C44.9207 6.29579 44.8824 4.76772 44.9591 3.84309H44.8982C44.6474 4.59925 43.5698 6.87011 43.0959 7.98697L41.5621 11.326H45.1763L44.9665 7.42156ZM28.2953 16.8398C25.3851 16.8398 23.4538 15.9167 22.0749 15.0937L24.0385 12.0949C25.2763 12.7872 26.2482 13.5861 28.4843 13.5861C29.2033 13.5861 29.8962 13.3992 30.2896 12.718C30.863 11.7271 30.1573 11.194 28.547 10.2825L27.7519 9.76551C25.3649 8.13434 24.3324 6.58518 25.4561 3.88083C26.1751 2.15102 28.0716 0.839844 31.2002 0.839844C33.3579 0.839844 35.3806 1.77309 36.5593 2.68493L34.3018 5.33254C33.1517 4.40227 32.1982 3.93163 31.1072 3.93163C30.2373 3.93163 29.5765 4.26708 29.3483 4.71959C28.919 5.57023 29.487 6.1502 30.7415 6.92894L31.6869 7.5303C34.585 9.35816 35.2755 11.2749 34.549 13.0668C33.2999 16.1511 30.8541 16.8398 28.2953 16.8398Z" fill="#1D5B99"/>
</svg>
